<?xml version="1.0" encoding="iso-8859-1"?>
<!-- Generator: Adobe Illustrator 18.0.0, SVG Export Plug-In . SVG Version: 6.00 Build 0)  -->
<!DOCTYPE svg PUBLIC "-//W3C//DTD SVG 1.1//EN" "http://www.w3.org/Graphics/SVG/1.1/DTD/svg11.dtd">
<svg xmlns="http://www.w3.org/2000/svg" xmlns:xlink="http://www.w3.org/1999/xlink" version="1.1" id="Capa_1" x="0px" y="0px" viewBox="0 0 469.768 469.768" style="enable-background:new 0 0 469.768 469.768;" xml:space="preserve" width="512px" height="512px">
<path d="M340.132,288.756c-0.921-1.625-2.605-2.682-4.45-2.974c-0.804-0.127-1.652-0.216-2.523-0.281  c7.295-26.513,3.278-63.592-2.256-74.659c-4.413-8.826-7.614-29.999-2.803-44.433c0.748-2.241,0.109-4.713-1.629-6.313  c-1.739-1.601-4.256-2.031-6.426-1.1c-3.377,1.448-6.211,3.3-8.595,5.347c0.022-6.329,0.033-12.791,0.033-19.364  c0-32.854-5.127-63.832-14.437-87.23c-10.005-25.147-23.997-38.997-39.397-38.997c-12.697,0-24.434,9.422-33.771,26.819  c-0.636-13.253-0.765-28.7,1.173-38.392c0.55-2.748-0.876-5.511-3.435-6.654c-2.558-1.146-5.567-0.365-7.249,1.878  C195.544,27.5,182.71,71.514,176.224,133.221c-3.58,34.056-4.135,64.394-4.185,77.674c-1.072-0.147-2.132-0.288-3.174-0.425  c-10.258-1.355-19.117-2.526-24.981-7.701c-4.101-3.618-6.208-4.78-8.669-4.78c-2.669,0-4.993,1.604-5.917,4.088  c-1.09,2.925-1.021,6.021,9.846,19.302c6.688,8.174,14.367,16.188,21.068,21.986c6.597,5.707,10.589,14.023,10.951,22.816  c0.218,5.281,0.389,11.436,0.571,17.95c1.27,45.586,3.189,114.475,26.583,137.063c7.448,7.191,16.871,12.502,27.889,15.829v26.745  c0,3.313,2.687,6,6,6h40.064c3.313,0,6-2.687,6-6V439.34c2.282-0.363,4.258-0.732,5.839-1.057c2.526-0.519,5.076-0.878,7.635-1.198  c11.239-1.406,20.115-6.223,26.417-14.371c11.664-15.083,13.691-40.854,6.024-76.595l-0.079-0.368  c-2.897-13.521,2.576-37.286,15.062-49.771C341.046,294.099,341.496,291.163,340.132,288.756z M320.171,216.208  c2.017,4.034,4.329,15.676,4.845,30.119c0.562,15.75-1.123,29.961-4.742,40.212c-4.179,0.909-8.547,2.388-12.857,4.501  c1.302-7.645,2.039-14.69,2.197-21.053c1.244-49.746,1.641-78.814,1.695-83.012c0.196-0.925,0.854-3.576,2.474-6.613  C313.294,193.756,315.963,207.794,320.171,216.208z M293.032,301.116c-2.027,1.968-4.101,4.291-6.068,7.001  c-0.137,0.003-0.274,0.011-0.412,0.011c-1.781,0-3.496-0.235-5.085-0.653c-0.607-3.129-2.479-5.94-5.26-8.188  c1.988-1.778,5.709-3.222,10.345-3.222c2.686,0,5.289,0.529,7.398,1.431c-0.246,1.149-0.512,2.32-0.782,3.495  C293.124,301.034,293.076,301.072,293.032,301.116z M276.504,373.265c-0.915-0.771-1.935-1.478-3.045-2.113  c1.539-0.879,2.898-1.901,4.052-3.034C277.311,369.9,276.984,371.631,276.504,373.265z M217.641,112.28  c2.072-1.684,5.728-2.99,10.1-2.99c3.104,0,6.106,0.696,8.362,1.884c-0.1,0.615-0.157,1.239-0.157,1.875  c0,1.993,0.507,3.889,1.432,5.632c-2.042,1.471-5.379,2.671-9.637,2.671c-4.813,0-8.76-1.584-10.677-3.515  C217.239,115.97,217.431,114.118,217.641,112.28z M258.817,317.583c-8.763,0-14.87-4.153-14.87-7.881s6.107-7.881,14.87-7.881  s14.869,4.153,14.869,7.881S267.579,317.583,258.817,317.583z M273.686,63.888c0,3.728-6.106,7.881-14.869,7.881  s-14.87-4.153-14.87-7.881c0-3.728,6.107-7.881,14.87-7.881S273.686,60.161,273.686,63.888z M296.272,284.675  c-2.123,1.541-5.603,2.7-9.72,2.7c-1.731,0-3.422-0.216-4.981-0.614c0.076-0.539,0.115-1.086,0.115-1.641  c0-2.983-1.132-5.747-3.113-8.107c2.027-0.991,4.756-1.7,7.979-1.7c4.638,0,8.475,1.47,10.464,3.306  C296.813,280.583,296.572,282.594,296.272,284.675z M286.552,266.623c-2.17,0-4.241-0.33-6.063-0.923  c0.773-1.612,1.197-3.345,1.197-5.161c0-1.781-0.408-3.482-1.153-5.068c1.817-0.586,3.873-0.911,6.019-0.911  c5.455,0,9.799,2.032,11.332,4.302c-0.028,1.179-0.057,2.377-0.087,3.583C296.194,264.662,291.911,266.623,286.552,266.623z   M243.947,235.958c0-3.728,6.107-7.881,14.87-7.881s14.869,4.153,14.869,7.881s-6.106,7.881-14.869,7.881  S243.947,239.685,243.947,235.958z M273.686,186.794c0,3.728-6.106,7.881-14.869,7.881s-14.87-4.153-14.87-7.881  s6.107-7.881,14.87-7.881S273.686,183.067,273.686,186.794z M275.548,200.452c-0.598-0.707-0.912-1.41-0.919-2.092  c2.063-1.358,3.75-2.985,4.957-4.811c2.042-0.806,4.47-1.248,6.967-1.248c6.831,0,11.935,3.187,11.935,6.036  c0,2.845-5.104,6.026-11.935,6.026C283.773,204.364,279.41,203.471,275.548,200.452z M286.552,183.612  c-1.957,0-3.842-0.266-5.553-0.768c-0.977-2.745-2.959-5.184-5.667-7.132c1.616-2.211,5.892-4.164,11.22-4.164  c6.831,0,11.935,3.187,11.935,6.036C298.487,180.429,293.383,183.612,286.552,183.612z M258.817,129.751  c8.763,0,14.869,4.153,14.869,7.881s-6.106,7.88-14.869,7.88s-14.87-4.152-14.87-7.88S250.054,129.751,258.817,129.751z   M258.817,154.333c8.763,0,14.869,4.153,14.869,7.881s-6.106,7.881-14.869,7.881s-14.87-4.153-14.87-7.881  S250.054,154.333,258.817,154.333z M258.817,203.496c1.217,0,2.383,0.08,3.487,0.229c3.701,0.497,7.156,2.144,10.021,4.54  c0,0,0.001,0,0.001,0c0.872,1.005,1.361,2.073,1.361,3.111c0,3.728-6.106,7.88-14.869,7.88s-14.87-4.152-14.87-7.88  S250.054,203.496,258.817,203.496z M286.552,225.117c-4.574,0-8.394-1.475-10.399-3.287c2.774-2.227,4.647-5.014,5.281-8.117  c1.602-0.423,3.329-0.66,5.118-0.66c6.831,0,11.935,3.188,11.935,6.037C298.487,221.935,293.383,225.117,286.552,225.117z   M286.552,162.859c-1.703,0-3.337-0.221-4.867-0.603c0-0.014,0.002-0.028,0.002-0.042c0-3.45-1.513-6.608-4.106-9.185  c2.114-1.283,5.24-2.233,8.971-2.233c6.831,0,11.935,3.183,11.935,6.027C298.487,159.672,293.383,162.859,286.552,162.859z   M286.552,142.106c-1.917,0-3.789-0.268-5.48-0.75c0.398-1.191,0.614-2.437,0.614-3.724c0-2.3-0.675-4.469-1.889-6.424  c1.975-0.744,4.304-1.166,6.755-1.166c6.831,0,11.935,3.183,11.935,6.027C298.487,138.919,293.383,142.106,286.552,142.106z   M258.817,120.931c-8.763,0-14.87-4.153-14.87-7.881s6.107-7.881,14.87-7.881s14.869,4.153,14.869,7.881  S267.579,120.931,258.817,120.931z M258.817,96.35c-8.763,0-14.87-4.153-14.87-7.881s6.107-7.881,14.87-7.881  s14.869,4.153,14.869,7.881S267.579,96.35,258.817,96.35z M239.67,177.58c0,0.158-0.021,0.318-0.052,0.478  c-0.81,0.868-1.499,1.796-2.055,2.775c-2.111,1.58-5.64,2.777-9.823,2.777c-6.221,0-10.996-2.643-11.798-5.266  c-0.004-0.498-0.008-0.991-0.012-1.491c0.767-2.635,5.559-5.303,11.81-5.303C234.568,171.549,239.67,174.733,239.67,177.58z   M227.74,192.302c6.829,0,11.931,3.184,11.931,6.03s-5.102,6.03-11.931,6.03c-5.784,0-10.316-2.285-11.571-4.714  c-0.012-0.852-0.022-1.713-0.033-2.57C217.344,194.627,221.906,192.302,227.74,192.302z M258.817,277.24  c8.763,0,14.869,4.152,14.869,7.88S267.579,293,258.817,293s-14.87-4.153-14.87-7.881S250.054,277.24,258.817,277.24z   M298.302,240.768c-0.945,2.567-5.655,5.102-11.751,5.102c-3.26,0-6.01-0.721-8.042-1.727c2.021-2.377,3.176-5.17,3.176-8.185  c0-0.521-0.038-1.036-0.105-1.543c1.556-0.394,3.244-0.608,4.971-0.608c6.19,0,10.948,2.617,11.789,5.228  C298.328,239.607,298.315,240.187,298.302,240.768z M236.121,90.44c0.372,2.177,1.354,4.204,2.829,6.002  c-1.628,2.182-5.908,4.158-11.208,4.158c-3.338,0-6.145-0.756-8.195-1.803c0.531-3.126,1.109-6.201,1.748-9.201  c1.926-0.677,4.156-1.059,6.447-1.059C230.854,88.538,233.852,89.239,236.121,90.44z M227.742,130.042  c4.065,0,7.302,1.093,9.375,2.488c-0.755,1.596-1.169,3.309-1.169,5.102c0,0.861,0.096,1.703,0.277,2.523  c-2.257,1.229-5.297,1.951-8.483,1.951c-6.229,0-11.009-2.65-11.805-5.278c0.015-0.556,0.03-1.111,0.048-1.666  C216.914,132.589,221.631,130.042,227.742,130.042z M227.742,150.795c4.99,0,9.101,1.766,10.915,3.804  c-1.479,1.92-2.401,4.089-2.641,6.41c-2.255,1.169-5.207,1.849-8.275,1.849c-6.659,0-11.663-3.028-11.911-5.82  c0-0.141-0.001-0.283-0.001-0.424C216.068,153.825,221.076,150.795,227.742,150.795z M227.742,213.053  c3.336,0,6.544,0.798,8.858,2.165c0.594,1.72,1.582,3.321,2.895,4.76c-0.912,2.58-5.633,5.138-11.753,5.138  c-5.319,0-9.578-1.93-11.208-4.127c-0.025-1.229-0.051-2.458-0.075-3.7C218.031,215.047,222.341,213.053,227.742,213.053z   M227.742,233.806c3.06,0,5.979,0.662,8.218,1.812c-0.003,0.113-0.012,0.226-0.012,0.339c0,2.422,0.748,4.7,2.088,6.735  c-1.982,1.736-5.649,3.177-10.294,3.177c-2.603,0-5.099-0.484-7.16-1.324c-1.163-2.683-2.329-5.109-3.494-7.248  C219.013,235.377,222.948,233.806,227.742,233.806z M258.817,252.658c8.763,0,14.869,4.153,14.869,7.881s-6.106,7.881-14.869,7.881  s-14.87-4.153-14.87-7.881S250.054,252.658,258.817,252.658z M258.817,326.402c8.763,0,14.869,4.153,14.869,7.881  s-6.106,7.881-14.869,7.881c-5.537,0-10.008-1.66-12.553-3.821c-0.457-2.193-0.921-4.4-1.393-6.615  C246.879,328.881,252.048,326.402,258.817,326.402z M286.552,121.353c-2.593,0-5.073-0.479-7.122-1.312  c1.448-2.099,2.257-4.467,2.257-6.991c0-1.054-0.145-2.08-0.415-3.072c1.634-0.446,3.424-0.688,5.28-0.688  c5.345,0,9.62,1.949,11.232,4.159c0.116,1.061,0.237,2.118,0.342,3.188C296.868,119.068,292.336,121.353,286.552,121.353z   M295.661,98.285c-2.112,1.328-5.283,2.315-9.109,2.315c-4.011,0-7.307-1.095-9.41-2.52c2.684-2.486,4.325-5.558,4.52-8.933  c1.535-0.387,3.177-0.61,4.89-0.61c3.091,0,5.621,0.633,7.543,1.494C294.663,92.728,295.179,95.487,295.661,98.285z M258.817,47.187  c-8.763,0-14.87-4.153-14.87-7.881s6.107-7.881,14.87-7.881s14.869,4.153,14.869,7.881S267.579,47.187,258.817,47.187z   M227.325,67.796c0.139-0.003,0.277-0.011,0.417-0.011c6.825,0,11.925,3.183,11.925,6.027c0,2.85-5.1,6.036-11.925,6.036  c-1.381,0-2.728-0.14-4.007-0.393C224.824,75.402,226.025,71.515,227.325,67.796z M258.819,350.98  c8.511,0,14.871,4.161,14.871,7.881c0,3.721-6.359,7.882-14.871,7.882c-2.519,0-4.943-0.359-7.111-1.03  c-0.782-4.109-1.608-8.368-2.474-12.736C251.909,351.716,255.283,350.98,258.819,350.98z M276.361,344.573  c0.015,0.661,0.035,1.327,0.067,2.003c-0.463-0.385-0.843-0.785-1.131-1.186C275.665,345.126,276.02,344.854,276.361,344.573z   M286.552,79.848c-5.73,0-10.231-2.246-11.532-4.653c2.596-1.794,4.559-4.029,5.661-6.549c1.786-0.563,3.782-0.862,5.872-0.862  c0.483,0,0.961,0.016,1.433,0.048c1.272,3.644,2.449,7.45,3.52,11.414C289.96,79.636,288.278,79.848,286.552,79.848z M280.13,58.034  c-1.2-2.16-3.05-4.076-5.396-5.641c0.402-1.39,2.009-2.915,4.54-3.982c1.844,3.149,3.618,6.686,5.299,10.59  C282.989,58.855,281.498,58.52,280.13,58.034z M239.667,53.059c0,2.409-3.651,5.051-8.902,5.813  c1.587-3.733,3.22-7.133,4.905-10.173C238.226,49.934,239.667,51.64,239.667,53.059z M227.742,254.559  c3.362,0,6.568,0.812,8.852,2.157c-0.419,1.221-0.646,2.5-0.646,3.823c0,1.355,0.236,2.665,0.675,3.913  c-2.103,1.25-5.006,2.025-8.102,2.14c-1.295-4.167-2.604-8.114-3.922-11.791C225.618,254.645,226.672,254.559,227.742,254.559z   M237.989,278.458c-1.31,2.017-2.042,4.268-2.042,6.661c0,0.149,0.01,0.295,0.016,0.443c-0.559,0.288-1.163,0.543-1.8,0.767  c-0.973-3.667-1.958-7.254-2.955-10.73C234.172,276.098,236.528,277.198,237.989,278.458z M258.819,375.562  c6.289,0,11.402,2.272,13.644,4.973c-0.216,0.218-0.42,0.446-0.652,0.649c-4.929,4.322-12.235,4.233-16.556,3.697  c-0.501-2.789-1.036-5.727-1.601-8.786C255.303,375.746,257.05,375.562,258.819,375.562z M278.469,326.048  c-1.054-1.229-2.345-2.344-3.826-3.321c0.042-0.799,0.471-1.617,1.295-2.427c0.291-0.284,0.599-0.54,0.915-0.76l0.563-0.392  c1.169-0.745,2.579-1.328,4.135-1.725C280.355,320.056,279.307,322.927,278.469,326.048z M211.47,31.572  c0.112,17.137,1.749,34.548,2.232,39.329c-6.412,21.311-9.888,47.055-9.888,74.079c0,27.841,0.25,53.757,0.743,77.298  c-6.366-4.918-13.475-7.59-20.52-9.256C184.051,190.099,185.649,89.972,211.47,31.572z M183.727,283.797  c-0.183-6.557-0.355-12.749-0.576-18.11c-0.498-12.088-5.998-23.532-15.089-31.397c-4.896-4.236-9.827-9.283-14.136-14.101  c4.375,0.989,8.9,1.588,13.366,2.178c15.124,1.998,29.409,3.886,38.495,19.314c16.496,28.009,34.631,127.594,39.797,157.447  c2.3,13.294,12.981,23.086,22.634,29.396c-3.693,0.358-7.805,0.602-12.154,0.602c-0.001,0-0.005,0-0.006,0  c-26.657-0.001-41.582-9.009-49.408-16.565C186.78,393.375,184.869,324.782,183.727,283.797z M266.268,457.768h-28.064v-18.009  c5.643,0.902,11.603,1.367,17.854,1.368c0.003,0,0.003,0,0.006,0c3.589,0,7.011-0.151,10.204-0.389V457.768z M312.371,348.264  l0.08,0.371c6.891,32.126,5.618,54.579-3.784,66.737c-4.73,6.116-11.539,9.401-20.775,10.036c-8.618-3.442-28-13.971-30.483-28.326  l0,0c6.492,0.271,15.303-0.774,22.242-6.811c8.618-7.498,11.768-20.236,9.361-37.863c-2.418-17.712,1.863-32.472,12.38-42.684  c6.238-6.057,13.934-9.779,20.918-11.404C312.735,314.19,309.488,334.811,312.371,348.264z" fill="#fff8dc"/>
<g>
</g>
<g>
</g>
<g>
</g>
<g>
</g>
<g>
</g>
<g>
</g>
<g>
</g>
<g>
</g>
<g>
</g>
<g>
</g>
<g>
</g>
<g>
</g>
<g>
</g>
<g>
</g>
<g>
</g>
</svg>
