<?xml version="1.0" encoding="iso-8859-1"?>
<!-- Generator: Adobe Illustrator 19.0.0, SVG Export Plug-In . SVG Version: 6.00 Build 0)  -->
<svg xmlns="http://www.w3.org/2000/svg" xmlns:xlink="http://www.w3.org/1999/xlink" version="1.1" id="Capa_1" x="0px" y="0px" viewBox="0 0 470 470" style="enable-background:new 0 0 470 470;" xml:space="preserve" width="512px" height="512px">
<g>
	<path d="M434.858,209.947L370,195.452V129.5c0-20.677-16.822-37.5-37.5-37.5h-295C16.822,92,0,108.823,0,129.5v206   c0,4.142,3.357,7.5,7.5,7.5h33.176c3.554,19.868,20.949,35,41.824,35c23.435,0,42.5-19.065,42.5-42.5S105.935,293,82.5,293   c-20.875,0-38.27,15.132-41.824,35H15V208.961h245V328H147.5c-4.143,0-7.5,3.358-7.5,7.5s3.357,7.5,7.5,7.5h208.176   c3.554,19.868,20.949,35,41.824,35s38.27-15.132,41.824-35H462.5c4.143,0,7.5-3.358,7.5-7.5v-81.69   C470,233.955,454.235,214.278,434.858,209.947z M82.5,308c15.163,0,27.5,12.336,27.5,27.5S97.663,363,82.5,363S55,350.664,55,335.5   S67.337,308,82.5,308z M340,193.961V137h15v56.961H340z M325,137v56.961h-50V137H325z M37.5,107h295c9.777,0,18.114,6.271,21.21,15   H16.29C19.386,113.271,27.723,107,37.5,107z M15,193.961V137h50v34.461c0,4.142,3.357,7.5,7.5,7.5s7.5-3.358,7.5-7.5V137h50v34.461   c0,4.142,3.357,7.5,7.5,7.5s7.5-3.358,7.5-7.5V137h50v34.461c0,4.142,3.357,7.5,7.5,7.5s7.5-3.358,7.5-7.5V137h50v56.961H15z    M275,208.961h50V328h-50V208.961z M397.5,363c-15.163,0-27.5-12.336-27.5-27.5s12.337-27.5,27.5-27.5s27.5,12.336,27.5,27.5   S412.663,363,397.5,363z M439.324,328c-3.554-19.868-20.949-35-41.824-35s-38.27,15.132-41.824,35H340V208.961h21.673   l69.914,15.625c10.24,2.289,19.193,11.443,22.272,21.724H442.5c-4.143,0-7.5,3.358-7.5,7.5s3.357,7.5,7.5,7.5H455v15h-12.5   c-4.143,0-7.5,3.358-7.5,7.5s3.357,7.5,7.5,7.5H455V328H439.324z" fill="#fff8dc"/>
	<path d="M245,231.461c0-4.142-3.357-7.5-7.5-7.5h-135c-4.143,0-7.5,3.358-7.5,7.5s3.357,7.5,7.5,7.5h135   C241.643,238.961,245,235.603,245,231.461z" fill="#fff8dc"/>
	<path d="M37.5,223.961c-4.143,0-7.5,3.358-7.5,7.5s3.357,7.5,7.5,7.5h35c4.143,0,7.5-3.358,7.5-7.5s-3.357-7.5-7.5-7.5H37.5z" fill="#fff8dc"/>
</g>
<g>
</g>
<g>
</g>
<g>
</g>
<g>
</g>
<g>
</g>
<g>
</g>
<g>
</g>
<g>
</g>
<g>
</g>
<g>
</g>
<g>
</g>
<g>
</g>
<g>
</g>
<g>
</g>
<g>
</g>
</svg>
