<?xml version="1.0" encoding="iso-8859-1"?>
<!-- Generator: Adobe Illustrator 18.0.0, SVG Export Plug-In . SVG Version: 6.00 Build 0)  -->
<!DOCTYPE svg PUBLIC "-//W3C//DTD SVG 1.1//EN" "http://www.w3.org/Graphics/SVG/1.1/DTD/svg11.dtd">
<svg xmlns="http://www.w3.org/2000/svg" xmlns:xlink="http://www.w3.org/1999/xlink" version="1.1" id="Capa_1" x="0px" y="0px" viewBox="0 0 297 297" style="enable-background:new 0 0 297 297;" xml:space="preserve" width="512px" height="512px">
<path d="M250.98,285.839l-6.333-51.952c-0.047-0.379-0.115-0.755-0.204-1.127c-4.348-18.055-4.799-67.556-1.798-85.008l8.264-48.041  c0.603-3.509-0.713-7.073-3.451-9.347c-14.777-12.273-22.915-28.43-22.915-45.494V9.957c0-5.498-4.458-9.957-9.957-9.957h-26.509  c-5.498,0-9.957,4.458-9.957,9.957v38.791c0,16.067-16.254,48.78-29.621,49.188c-13.367-0.407-29.621-33.121-29.621-49.188V9.957  c0-5.498-4.458-9.957-9.957-9.957H82.413c-5.498,0-9.957,4.458-9.957,9.957V44.87c0,17.064-8.137,33.221-22.915,45.494  c-2.738,2.274-4.054,5.838-3.451,9.347l8.264,48.041c3.002,17.452,2.55,66.953-1.798,85.008c-0.089,0.371-0.158,0.748-0.204,1.127  l-6.333,51.952c-0.344,2.829,0.54,5.672,2.43,7.806c1.889,2.133,4.603,3.355,7.454,3.355h75.583c4.431,0,8.329-2.929,9.563-7.184  l8.395-28.955l10.448,29.505c1.408,3.976,5.168,6.633,9.386,6.633h71.819c2.851,0,5.565-1.222,7.454-3.355  C250.44,291.51,251.324,288.668,250.98,285.839z M73.98,144.375l-7.325-42.583c2.281-2.156,4.409-4.416,6.41-6.751l10.374,52.2  c3.035,17.796,2.561,67.989-1.857,86.335c-0.058,0.241-0.102,0.485-0.132,0.732l-5.215,42.778h-9.086l4.906-40.248  C76.913,215.743,77.372,164.099,73.98,144.375z M157.886,225.041c-1.443-4.076-5.306-6.769-9.675-6.629  c-4.323,0.126-8.069,3.027-9.274,7.18l-14.931,51.495H89.273l4.98-40.854c4.826-20.632,5.283-71.765,1.928-91.266  c-0.01-0.055-0.02-0.11-0.031-0.164L83.296,80.125c5.89-10.997,9.074-23.037,9.074-35.255V19.913h6.596v28.834  c0,20.309,19.17,68.683,49.396,69.102c0.091,0.002,0.185,0.002,0.276,0c30.226-0.419,49.396-48.793,49.396-69.102V19.913h6.596  V44.87c0,12.218,3.183,24.258,9.074,35.255l-12.854,64.678c-0.011,0.054-0.021,0.109-0.031,0.164  c-3.355,19.501-2.898,70.634,1.928,91.266l4.98,40.854h-31.413L157.886,225.041z M224.946,236.838l4.906,40.248h-9.086  l-5.215-42.778c-0.03-0.247-0.074-0.491-0.132-0.732c-4.418-18.347-4.892-68.539-1.857-86.335l10.374-52.2  c2,2.335,4.129,4.595,6.41,6.751l-7.325,42.583C219.628,164.099,220.087,215.743,224.946,236.838z" fill="#fff8dc"/>
<g>
</g>
<g>
</g>
<g>
</g>
<g>
</g>
<g>
</g>
<g>
</g>
<g>
</g>
<g>
</g>
<g>
</g>
<g>
</g>
<g>
</g>
<g>
</g>
<g>
</g>
<g>
</g>
<g>
</g>
</svg>
