<?xml version="1.0" encoding="iso-8859-1"?>
<!-- Generator: Adobe Illustrator 19.0.0, SVG Export Plug-In . SVG Version: 6.00 Build 0)  -->
<svg xmlns="http://www.w3.org/2000/svg" xmlns:xlink="http://www.w3.org/1999/xlink" version="1.1" id="Layer_1" x="0px" y="0px" viewBox="0 0 512.003 512.003" style="enable-background:new 0 0 512.003 512.003;" xml:space="preserve" width="512px" height="512px">
<g>
	<g>
		<path d="M356.59,32.31C327.145,11.172,292.365,0,256.006,0c-36.365,0-71.15,11.172-100.593,32.309    c-45.158,32.399-72.119,84.886-72.119,140.403v102.492c0,4.696,3.807,8.503,8.503,8.503c4.696,0,8.503-3.807,8.503-8.503v-29.795    l31.89-17.926c22.626-12.726,36.682-36.754,36.682-62.707V43.684c25.767-17.454,55.791-26.677,87.132-26.677    c31.335,0,61.353,9.223,87.121,26.676v55.838c0,4.696,3.807,8.503,8.503,8.503s8.503-3.807,8.503-8.503v-42.53    c32.549,29.361,51.565,71.472,51.565,115.72v53.186l-23.552-13.239c-17.279-9.718-28.013-28.066-28.013-47.884v-38.043    c0-4.696-3.807-8.503-8.503-8.503s-8.503,3.807-8.503,8.503v33.992l-87.121,70.697l-62.527-50.734    c-3.646-2.958-9.002-2.401-11.962,1.246c-2.959,3.647-2.401,9.002,1.246,11.962l67.886,55.081c1.561,1.266,3.459,1.9,5.358,1.9    c1.899,0,3.797-0.634,5.358-1.9l83.648-67.879c4.534,19.407,17.017,36.387,34.799,46.387l31.888,17.926v56.556    c0,27.345-17.327,51.804-43.114,60.867c-3.598,1.264-5.864,4.745-5.662,8.475v16.771c0,28.554-11.122,55.401-31.319,75.598    c-20.196,20.196-47.045,31.319-75.598,31.319c-58.954,0-106.917-47.963-106.917-106.917v-16.914    c0.003-0.102,0.006-0.205,0.006-0.308c0-3.774-2.463-6.975-5.867-8.085c-25.683-9.129-42.926-33.54-42.926-60.803    c0-4.696-3.807-8.503-8.503-8.503s-8.503,3.807-8.503,8.503c0,32.486,19.369,61.762,48.787,74.668v11.443    c0,68.332,55.592,123.924,123.924,123.924c33.097,0,64.215-12.891,87.623-36.301c23.408-23.408,36.301-54.528,36.301-87.623    v-11.45c29.411-12.897,48.776-42.168,48.776-74.662V172.715C428.706,117.204,401.747,64.717,356.59,32.31z M151.867,164.775    c0,19.818-10.734,38.166-28.01,47.883l-23.555,13.24v-53.186c0-44.254,19.015-86.366,51.565-115.722V164.775z" fill="#fff8dc"/>
	</g>
</g>
<g>
	<g>
		<path d="M296.707,335.082c-8.22-9.294-20.248-30.23-33.001-57.443c-1.399-2.985-4.4-4.893-7.7-4.893    c-3.299,0-6.301,1.908-7.7,4.895c-12.745,27.194-24.778,48.132-33.013,57.443c-1.511,1.709-2.272,3.952-2.112,6.228    s1.227,4.391,2.96,5.872c11.551,9.863,25.708,14.794,39.863,14.794c14.155,0,28.311-4.932,39.856-14.796    c1.734-1.482,2.8-3.596,2.959-5.872C298.979,339.035,298.219,336.791,296.707,335.082z M233.836,338.968    c7.693-10.762,15.721-25.467,22.169-38.259c6.449,12.797,14.476,27.504,22.161,38.26    C264.444,346.94,247.566,346.94,233.836,338.968z" fill="#fff8dc"/>
	</g>
</g>
<g>
	<g>
		<path d="M401.691,292.92c-3.811-2.745-9.125-1.88-11.87,1.931c-14.564,20.221-37.194,33.603-62.091,36.712    c-4.66,0.583-7.966,4.832-7.384,9.492c0.537,4.303,4.201,7.45,8.428,7.45c0.352,0.002,0.707-0.02,1.066-0.065    c29.573-3.694,56.465-19.604,73.783-43.651C406.367,300.979,405.502,295.665,401.691,292.92z" fill="#fff8dc"/>
	</g>
</g>
<g>
	<g>
		<path d="M396.93,243.39c-1.875-2.322-4.83-3.486-7.779-3.081l-72.064,9.966c-19.349,2.676-33.12,20.625-30.696,40.012    c0,0.001,0,0.002,0,0.003c1.193,9.514,6.017,17.993,13.583,23.878c6.362,4.948,14.024,7.562,21.951,7.562    c1.503,0,3.017-0.094,4.533-0.283c14.653-1.827,28.512-7.668,40.08-16.892c11.549-9.213,20.323-21.431,25.376-35.329l6.395-17.585    C399.327,248.839,398.805,245.709,396.93,243.39z M375.929,263.413c-3.982,10.956-10.897,20.584-19.997,27.844    c-9.116,7.27-20.035,11.873-31.584,13.313c-5.002,0.628-9.953-0.732-13.934-3.828c-3.981-3.095-6.519-7.558-7.149-12.565    c-1.276-10.203,5.971-19.648,16.151-21.056l58.084-8.033L375.929,263.413z" fill="#fff8dc"/>
	</g>
</g>
<g>
	<g>
		<path d="M184.281,331.564c-24.906-3.109-47.537-16.49-62.089-36.71c-2.743-3.812-8.057-4.679-11.869-1.935    c-3.812,2.744-4.678,8.058-1.934,11.87c17.306,24.048,44.2,39.96,73.785,43.652c0.357,0.044,0.712,0.067,1.063,0.067    c4.227,0,7.89-3.149,8.428-7.451C192.247,336.396,188.941,332.147,184.281,331.564z" fill="#fff8dc"/>
	</g>
</g>
<g>
	<g>
		<path d="M194.915,250.275l-72.053-9.966c-2.952-0.405-5.904,0.76-7.777,3.076c-1.874,2.318-2.398,5.447-1.381,8.248l6.382,17.583    c5.032,13.875,13.805,26.093,25.38,35.337c11.565,9.223,25.428,15.064,40.083,16.89c1.517,0.19,3.032,0.285,4.536,0.285    c7.928,0,15.589-2.616,21.949-7.562c7.569-5.886,12.391-14.367,13.577-23.881C228.035,270.898,214.264,252.949,194.915,250.275z     M208.736,288.177c0,0.001,0,0.002,0,0.003c-0.624,5.003-3.16,9.465-7.142,12.561c-3.981,3.096-8.926,4.454-13.935,3.827    c-11.551-1.44-22.475-6.043-31.584-13.309c-9.121-7.285-16.038-16.913-20.001-27.845l-1.571-4.328l58.083,8.033    C202.767,268.528,210.011,277.974,208.736,288.177z" fill="#fff8dc"/>
	</g>
</g>
<g>
	<g>
		<path d="M313.856,389.489c-7.287-7.286-16.976-11.299-27.283-11.299h-61.134c-21.281,0-38.594,17.314-38.594,38.594    c0,10.298,4.011,19.989,11.306,27.301c7.299,7.282,16.99,11.294,27.288,11.294h61.134c21.281,0,38.594-17.314,38.594-38.594    C325.168,406.478,321.151,396.785,313.856,389.489z M286.573,438.371h-61.134c-5.763,0-11.187-2.246-15.262-6.313    c-4.079-4.087-6.325-9.513-6.325-15.274c0-11.904,9.685-21.588,21.588-21.588h61.134c5.763,0,11.183,2.244,15.258,6.319    c4.083,4.083,6.33,9.505,6.33,15.269C308.161,428.688,298.477,438.371,286.573,438.371z" fill="#fff8dc"/>
	</g>
</g>
<g>
	<g>
		<path d="M323.229,97.097c-1-3.078-3.661-5.322-6.864-5.787l-36.44-5.295l-16.296-33.021c-1.433-2.903-4.389-4.74-7.626-4.74    c-3.236,0-6.193,1.838-7.626,4.74L232.08,86.016l-36.44,5.295c-3.203,0.465-5.864,2.709-6.864,5.787    c-1,3.078-0.166,6.457,2.152,8.717l26.368,25.702l-6.225,36.293c-0.546,3.19,0.764,6.415,3.383,8.318    c2.618,1.901,6.089,2.153,8.955,0.647l32.593-17.136l32.592,17.136c1.245,0.654,2.602,0.976,3.956,0.976    c1.763,0,3.518-0.548,4.999-1.624c2.619-1.903,3.93-5.127,3.383-8.318l-6.225-36.293l26.368-25.702    C323.395,103.554,324.229,100.175,323.229,97.097z M279.637,122.459c-2.005,1.953-2.92,4.769-2.446,7.527l4.068,23.716    l-21.298-11.197c-2.478-1.302-5.437-1.302-7.914,0l-21.299,11.197l4.068-23.716c0.473-2.758-0.441-5.574-2.446-7.527    l-17.231-16.796l23.813-3.46c2.77-0.402,5.163-2.142,6.403-4.652l10.65-21.578l10.65,21.578c1.238,2.509,3.633,4.25,6.403,4.652    l23.813,3.46L279.637,122.459z" fill="#fff8dc"/>
	</g>
</g>
<g>
	<g>
		<path d="M288.316,408.279H223.69c-4.696,0-8.503,3.807-8.503,8.503c0,4.696,3.807,8.503,8.503,8.503h64.626    c4.696,0,8.503-3.807,8.503-8.503C296.82,412.086,293.012,408.279,288.316,408.279z" fill="#fff8dc"/>
	</g>
</g>
<g>
</g>
<g>
</g>
<g>
</g>
<g>
</g>
<g>
</g>
<g>
</g>
<g>
</g>
<g>
</g>
<g>
</g>
<g>
</g>
<g>
</g>
<g>
</g>
<g>
</g>
<g>
</g>
<g>
</g>
</svg>
